%TF.GenerationSoftware,KiCad,Pcbnew,(5.1.9)-1*%
%TF.CreationDate,2021-09-13T23:33:08+02:00*%
%TF.ProjectId,SafetyBoard,53616665-7479-4426-9f61-72642e6b6963,rev?*%
%TF.SameCoordinates,Original*%
%TF.FileFunction,Legend,Bot*%
%TF.FilePolarity,Positive*%
%FSLAX46Y46*%
G04 Gerber Fmt 4.6, Leading zero omitted, Abs format (unit mm)*
G04 Created by KiCad (PCBNEW (5.1.9)-1) date 2021-09-13 23:33:08*
%MOMM*%
%LPD*%
G01*
G04 APERTURE LIST*
%ADD10R,2.600000X2.600000*%
%ADD11C,2.600000*%
%ADD12C,4.300000*%
%ADD13O,1.700000X1.950000*%
%ADD14R,1.600000X1.600000*%
%ADD15O,1.600000X1.600000*%
%ADD16C,2.000000*%
%ADD17R,2.000000X2.000000*%
%ADD18O,1.700000X2.000000*%
%ADD19R,1.700000X1.700000*%
%ADD20O,1.700000X1.700000*%
%ADD21C,2.340000*%
G04 APERTURE END LIST*
%LPC*%
D10*
%TO.C,J4*%
X149860000Y-33020000D03*
D11*
X144860000Y-33020000D03*
X139860000Y-33020000D03*
%TD*%
D12*
%TO.C,REF\u002A\u002A*%
X180340000Y-76200000D03*
%TD*%
%TO.C,REF\u002A\u002A*%
X129540000Y-76200000D03*
%TD*%
%TO.C,REF\u002A\u002A*%
X129540000Y-35560000D03*
%TD*%
%TO.C,REF\u002A\u002A*%
X180340000Y-35560000D03*
%TD*%
%TO.C,J5*%
G36*
G01*
X156630000Y-33745000D02*
X156630000Y-32295000D01*
G75*
G02*
X156880000Y-32045000I250000J0D01*
G01*
X158080000Y-32045000D01*
G75*
G02*
X158330000Y-32295000I0J-250000D01*
G01*
X158330000Y-33745000D01*
G75*
G02*
X158080000Y-33995000I-250000J0D01*
G01*
X156880000Y-33995000D01*
G75*
G02*
X156630000Y-33745000I0J250000D01*
G01*
G37*
D13*
X159980000Y-33020000D03*
X162480000Y-33020000D03*
X164980000Y-33020000D03*
X167480000Y-33020000D03*
X169980000Y-33020000D03*
%TD*%
D14*
%TO.C,D1*%
X142240000Y-80010000D03*
D15*
X142240000Y-72390000D03*
%TD*%
D16*
%TO.C,HFD31*%
X154940000Y-73660000D03*
X154940000Y-78740000D03*
X147320000Y-73660000D03*
X152400000Y-73660000D03*
D17*
X147320000Y-78740000D03*
D16*
X152400000Y-78740000D03*
X157480000Y-73660000D03*
X157480000Y-78740000D03*
%TD*%
D18*
%TO.C,J1*%
X162560000Y-45720000D03*
G36*
G01*
X165910000Y-44970000D02*
X165910000Y-46470000D01*
G75*
G02*
X165660000Y-46720000I-250000J0D01*
G01*
X164460000Y-46720000D01*
G75*
G02*
X164210000Y-46470000I0J250000D01*
G01*
X164210000Y-44970000D01*
G75*
G02*
X164460000Y-44720000I250000J0D01*
G01*
X165660000Y-44720000D01*
G75*
G02*
X165910000Y-44970000I0J-250000D01*
G01*
G37*
%TD*%
%TO.C,J2*%
G36*
G01*
X165910000Y-55130000D02*
X165910000Y-56630000D01*
G75*
G02*
X165660000Y-56880000I-250000J0D01*
G01*
X164460000Y-56880000D01*
G75*
G02*
X164210000Y-56630000I0J250000D01*
G01*
X164210000Y-55130000D01*
G75*
G02*
X164460000Y-54880000I250000J0D01*
G01*
X165660000Y-54880000D01*
G75*
G02*
X165910000Y-55130000I0J-250000D01*
G01*
G37*
X162560000Y-55880000D03*
%TD*%
%TO.C,J3*%
X162600000Y-66040000D03*
G36*
G01*
X165950000Y-65290000D02*
X165950000Y-66790000D01*
G75*
G02*
X165700000Y-67040000I-250000J0D01*
G01*
X164500000Y-67040000D01*
G75*
G02*
X164250000Y-66790000I0J250000D01*
G01*
X164250000Y-65290000D01*
G75*
G02*
X164500000Y-65040000I250000J0D01*
G01*
X165700000Y-65040000D01*
G75*
G02*
X165950000Y-65290000I0J-250000D01*
G01*
G37*
%TD*%
%TO.C,J6*%
G36*
G01*
X140550000Y-44970000D02*
X140550000Y-46470000D01*
G75*
G02*
X140300000Y-46720000I-250000J0D01*
G01*
X139100000Y-46720000D01*
G75*
G02*
X138850000Y-46470000I0J250000D01*
G01*
X138850000Y-44970000D01*
G75*
G02*
X139100000Y-44720000I250000J0D01*
G01*
X140300000Y-44720000D01*
G75*
G02*
X140550000Y-44970000I0J-250000D01*
G01*
G37*
X137200000Y-45720000D03*
%TD*%
%TO.C,J7*%
G36*
G01*
X140550000Y-55130000D02*
X140550000Y-56630000D01*
G75*
G02*
X140300000Y-56880000I-250000J0D01*
G01*
X139100000Y-56880000D01*
G75*
G02*
X138850000Y-56630000I0J250000D01*
G01*
X138850000Y-55130000D01*
G75*
G02*
X139100000Y-54880000I250000J0D01*
G01*
X140300000Y-54880000D01*
G75*
G02*
X140550000Y-55130000I0J-250000D01*
G01*
G37*
X137200000Y-55880000D03*
%TD*%
%TO.C,J8*%
G36*
G01*
X140550000Y-65290000D02*
X140550000Y-66790000D01*
G75*
G02*
X140300000Y-67040000I-250000J0D01*
G01*
X139100000Y-67040000D01*
G75*
G02*
X138850000Y-66790000I0J250000D01*
G01*
X138850000Y-65290000D01*
G75*
G02*
X139100000Y-65040000I250000J0D01*
G01*
X140300000Y-65040000D01*
G75*
G02*
X140550000Y-65290000I0J-250000D01*
G01*
G37*
X137200000Y-66040000D03*
%TD*%
%TO.C,J9*%
G36*
G01*
X153250000Y-44970000D02*
X153250000Y-46470000D01*
G75*
G02*
X153000000Y-46720000I-250000J0D01*
G01*
X151800000Y-46720000D01*
G75*
G02*
X151550000Y-46470000I0J250000D01*
G01*
X151550000Y-44970000D01*
G75*
G02*
X151800000Y-44720000I250000J0D01*
G01*
X153000000Y-44720000D01*
G75*
G02*
X153250000Y-44970000I0J-250000D01*
G01*
G37*
X149900000Y-45720000D03*
%TD*%
%TO.C,J10*%
X149900000Y-66040000D03*
G36*
G01*
X153250000Y-65290000D02*
X153250000Y-66790000D01*
G75*
G02*
X153000000Y-67040000I-250000J0D01*
G01*
X151800000Y-67040000D01*
G75*
G02*
X151550000Y-66790000I0J250000D01*
G01*
X151550000Y-65290000D01*
G75*
G02*
X151800000Y-65040000I250000J0D01*
G01*
X153000000Y-65040000D01*
G75*
G02*
X153250000Y-65290000I0J-250000D01*
G01*
G37*
%TD*%
%TO.C,J11*%
X149900000Y-55880000D03*
G36*
G01*
X153250000Y-55130000D02*
X153250000Y-56630000D01*
G75*
G02*
X153000000Y-56880000I-250000J0D01*
G01*
X151800000Y-56880000D01*
G75*
G02*
X151550000Y-56630000I0J250000D01*
G01*
X151550000Y-55130000D01*
G75*
G02*
X151800000Y-54880000I250000J0D01*
G01*
X153000000Y-54880000D01*
G75*
G02*
X153250000Y-55130000I0J-250000D01*
G01*
G37*
%TD*%
D19*
%TO.C,JP1*%
X129540000Y-55880000D03*
D20*
X129540000Y-53340000D03*
%TD*%
%TO.C,JP2*%
X129540000Y-63500000D03*
D19*
X129540000Y-66040000D03*
%TD*%
D21*
%TO.C,RV1*%
X182720000Y-53300000D03*
X172720000Y-50800000D03*
X182720000Y-48300000D03*
%TD*%
%TO.C,RV2*%
X182720000Y-61000000D03*
X172720000Y-63500000D03*
X182720000Y-66000000D03*
%TD*%
M02*
