%TF.GenerationSoftware,KiCad,Pcbnew,(5.1.9)-1*%
%TF.CreationDate,2021-09-13T23:33:08+02:00*%
%TF.ProjectId,SafetyBoard,53616665-7479-4426-9f61-72642e6b6963,rev?*%
%TF.SameCoordinates,Original*%
%TF.FileFunction,Legend,Top*%
%TF.FilePolarity,Positive*%
%FSLAX46Y46*%
G04 Gerber Fmt 4.6, Leading zero omitted, Abs format (unit mm)*
G04 Created by KiCad (PCBNEW (5.1.9)-1) date 2021-09-13 23:33:08*
%MOMM*%
%LPD*%
G01*
G04 APERTURE LIST*
%ADD10C,0.250000*%
%ADD11C,0.170000*%
%ADD12C,0.120000*%
%ADD13C,0.150000*%
%ADD14R,2.600000X2.600000*%
%ADD15C,2.600000*%
%ADD16C,4.300000*%
%ADD17O,1.700000X1.950000*%
%ADD18R,1.600000X1.600000*%
%ADD19O,1.600000X1.600000*%
%ADD20C,2.000000*%
%ADD21R,2.000000X2.000000*%
%ADD22O,1.700000X2.000000*%
%ADD23R,1.700000X1.700000*%
%ADD24O,1.700000X1.700000*%
%ADD25C,2.340000*%
G04 APERTURE END LIST*
D10*
X125813571Y-50915357D02*
X124313571Y-50915357D01*
X125813571Y-50058214D02*
X124956428Y-50701071D01*
X124313571Y-50058214D02*
X125170714Y-50915357D01*
X124813571Y-48772500D02*
X125813571Y-48772500D01*
X124242142Y-49129642D02*
X125313571Y-49486785D01*
X125313571Y-48558214D01*
X124313571Y-47701071D02*
X124313571Y-47558214D01*
X124385000Y-47415357D01*
X124456428Y-47343928D01*
X124599285Y-47272500D01*
X124885000Y-47201071D01*
X125242142Y-47201071D01*
X125527857Y-47272500D01*
X125670714Y-47343928D01*
X125742142Y-47415357D01*
X125813571Y-47558214D01*
X125813571Y-47701071D01*
X125742142Y-47843928D01*
X125670714Y-47915357D01*
X125527857Y-47986785D01*
X125242142Y-48058214D01*
X124885000Y-48058214D01*
X124599285Y-47986785D01*
X124456428Y-47915357D01*
X124385000Y-47843928D01*
X124313571Y-47701071D01*
X125742142Y-45486785D02*
X125813571Y-45343928D01*
X125813571Y-45058214D01*
X125742142Y-44915357D01*
X125599285Y-44843928D01*
X125527857Y-44843928D01*
X125385000Y-44915357D01*
X125313571Y-45058214D01*
X125313571Y-45272500D01*
X125242142Y-45415357D01*
X125099285Y-45486785D01*
X125027857Y-45486785D01*
X124885000Y-45415357D01*
X124813571Y-45272500D01*
X124813571Y-45058214D01*
X124885000Y-44915357D01*
X125813571Y-43558214D02*
X125027857Y-43558214D01*
X124885000Y-43629642D01*
X124813571Y-43772500D01*
X124813571Y-44058214D01*
X124885000Y-44201071D01*
X125742142Y-43558214D02*
X125813571Y-43701071D01*
X125813571Y-44058214D01*
X125742142Y-44201071D01*
X125599285Y-44272500D01*
X125456428Y-44272500D01*
X125313571Y-44201071D01*
X125242142Y-44058214D01*
X125242142Y-43701071D01*
X125170714Y-43558214D01*
X124813571Y-43058214D02*
X124813571Y-42486785D01*
X125813571Y-42843928D02*
X124527857Y-42843928D01*
X124385000Y-42772500D01*
X124313571Y-42629642D01*
X124313571Y-42486785D01*
X125742142Y-41415357D02*
X125813571Y-41558214D01*
X125813571Y-41843928D01*
X125742142Y-41986785D01*
X125599285Y-42058214D01*
X125027857Y-42058214D01*
X124885000Y-41986785D01*
X124813571Y-41843928D01*
X124813571Y-41558214D01*
X124885000Y-41415357D01*
X125027857Y-41343928D01*
X125170714Y-41343928D01*
X125313571Y-42058214D01*
X124813571Y-40915357D02*
X124813571Y-40343928D01*
X124313571Y-40701071D02*
X125599285Y-40701071D01*
X125742142Y-40629642D01*
X125813571Y-40486785D01*
X125813571Y-40343928D01*
X124813571Y-39986785D02*
X125813571Y-39629642D01*
X124813571Y-39272500D02*
X125813571Y-39629642D01*
X126170714Y-39772500D01*
X126242142Y-39843928D01*
X126313571Y-39986785D01*
X125813571Y-37558214D02*
X124313571Y-37558214D01*
X124885000Y-37558214D02*
X124813571Y-37415357D01*
X124813571Y-37129642D01*
X124885000Y-36986785D01*
X124956428Y-36915357D01*
X125099285Y-36843928D01*
X125527857Y-36843928D01*
X125670714Y-36915357D01*
X125742142Y-36986785D01*
X125813571Y-37129642D01*
X125813571Y-37415357D01*
X125742142Y-37558214D01*
X125813571Y-35986785D02*
X125742142Y-36129642D01*
X125670714Y-36201071D01*
X125527857Y-36272500D01*
X125099285Y-36272500D01*
X124956428Y-36201071D01*
X124885000Y-36129642D01*
X124813571Y-35986785D01*
X124813571Y-35772500D01*
X124885000Y-35629642D01*
X124956428Y-35558214D01*
X125099285Y-35486785D01*
X125527857Y-35486785D01*
X125670714Y-35558214D01*
X125742142Y-35629642D01*
X125813571Y-35772500D01*
X125813571Y-35986785D01*
X125813571Y-34201071D02*
X125027857Y-34201071D01*
X124885000Y-34272500D01*
X124813571Y-34415357D01*
X124813571Y-34701071D01*
X124885000Y-34843928D01*
X125742142Y-34201071D02*
X125813571Y-34343928D01*
X125813571Y-34701071D01*
X125742142Y-34843928D01*
X125599285Y-34915357D01*
X125456428Y-34915357D01*
X125313571Y-34843928D01*
X125242142Y-34701071D01*
X125242142Y-34343928D01*
X125170714Y-34201071D01*
X125813571Y-33486785D02*
X124813571Y-33486785D01*
X125099285Y-33486785D02*
X124956428Y-33415357D01*
X124885000Y-33343928D01*
X124813571Y-33201071D01*
X124813571Y-33058214D01*
X125813571Y-31915357D02*
X124313571Y-31915357D01*
X125742142Y-31915357D02*
X125813571Y-32058214D01*
X125813571Y-32343928D01*
X125742142Y-32486785D01*
X125670714Y-32558214D01*
X125527857Y-32629642D01*
X125099285Y-32629642D01*
X124956428Y-32558214D01*
X124885000Y-32486785D01*
X124813571Y-32343928D01*
X124813571Y-32058214D01*
X124885000Y-31915357D01*
X126813571Y-51129642D02*
X126813571Y-50272500D01*
X128313571Y-50701071D02*
X126813571Y-50701071D01*
X128170714Y-49772500D02*
X128242142Y-49701071D01*
X128313571Y-49772500D01*
X128242142Y-49843928D01*
X128170714Y-49772500D01*
X128313571Y-49772500D01*
X128242142Y-47986785D02*
X128313571Y-47772500D01*
X128313571Y-47415357D01*
X128242142Y-47272500D01*
X128170714Y-47201071D01*
X128027857Y-47129642D01*
X127885000Y-47129642D01*
X127742142Y-47201071D01*
X127670714Y-47272500D01*
X127599285Y-47415357D01*
X127527857Y-47701071D01*
X127456428Y-47843928D01*
X127385000Y-47915357D01*
X127242142Y-47986785D01*
X127099285Y-47986785D01*
X126956428Y-47915357D01*
X126885000Y-47843928D01*
X126813571Y-47701071D01*
X126813571Y-47343928D01*
X126885000Y-47129642D01*
X128242142Y-45843928D02*
X128313571Y-45986785D01*
X128313571Y-46272500D01*
X128242142Y-46415357D01*
X128170714Y-46486785D01*
X128027857Y-46558214D01*
X127599285Y-46558214D01*
X127456428Y-46486785D01*
X127385000Y-46415357D01*
X127313571Y-46272500D01*
X127313571Y-45986785D01*
X127385000Y-45843928D01*
X128313571Y-45201071D02*
X126813571Y-45201071D01*
X128313571Y-44558214D02*
X127527857Y-44558214D01*
X127385000Y-44629642D01*
X127313571Y-44772500D01*
X127313571Y-44986785D01*
X127385000Y-45129642D01*
X127456428Y-45201071D01*
X128313571Y-43201071D02*
X127527857Y-43201071D01*
X127385000Y-43272500D01*
X127313571Y-43415357D01*
X127313571Y-43701071D01*
X127385000Y-43843928D01*
X128242142Y-43201071D02*
X128313571Y-43343928D01*
X128313571Y-43701071D01*
X128242142Y-43843928D01*
X128099285Y-43915357D01*
X127956428Y-43915357D01*
X127813571Y-43843928D01*
X127742142Y-43701071D01*
X127742142Y-43343928D01*
X127670714Y-43201071D01*
X127313571Y-42486785D02*
X128313571Y-42486785D01*
X127456428Y-42486785D02*
X127385000Y-42415357D01*
X127313571Y-42272500D01*
X127313571Y-42058214D01*
X127385000Y-41915357D01*
X127527857Y-41843928D01*
X128313571Y-41843928D01*
X127313571Y-41129642D02*
X128313571Y-41129642D01*
X127456428Y-41129642D02*
X127385000Y-41058214D01*
X127313571Y-40915357D01*
X127313571Y-40701071D01*
X127385000Y-40558214D01*
X127527857Y-40486785D01*
X128313571Y-40486785D01*
X128242142Y-39201071D02*
X128313571Y-39343928D01*
X128313571Y-39629642D01*
X128242142Y-39772500D01*
X128099285Y-39843928D01*
X127527857Y-39843928D01*
X127385000Y-39772500D01*
X127313571Y-39629642D01*
X127313571Y-39343928D01*
X127385000Y-39201071D01*
X127527857Y-39129642D01*
X127670714Y-39129642D01*
X127813571Y-39843928D01*
X129456428Y-50986785D02*
X129385000Y-50915357D01*
X129313571Y-50772500D01*
X129313571Y-50415357D01*
X129385000Y-50272500D01*
X129456428Y-50201071D01*
X129599285Y-50129642D01*
X129742142Y-50129642D01*
X129956428Y-50201071D01*
X130813571Y-51058214D01*
X130813571Y-50129642D01*
X129313571Y-49201071D02*
X129313571Y-49058214D01*
X129385000Y-48915357D01*
X129456428Y-48843928D01*
X129599285Y-48772500D01*
X129885000Y-48701071D01*
X130242142Y-48701071D01*
X130527857Y-48772500D01*
X130670714Y-48843928D01*
X130742142Y-48915357D01*
X130813571Y-49058214D01*
X130813571Y-49201071D01*
X130742142Y-49343928D01*
X130670714Y-49415357D01*
X130527857Y-49486785D01*
X130242142Y-49558214D01*
X129885000Y-49558214D01*
X129599285Y-49486785D01*
X129456428Y-49415357D01*
X129385000Y-49343928D01*
X129313571Y-49201071D01*
X129456428Y-48129642D02*
X129385000Y-48058214D01*
X129313571Y-47915357D01*
X129313571Y-47558214D01*
X129385000Y-47415357D01*
X129456428Y-47343928D01*
X129599285Y-47272500D01*
X129742142Y-47272500D01*
X129956428Y-47343928D01*
X130813571Y-48201071D01*
X130813571Y-47272500D01*
X130813571Y-45843928D02*
X130813571Y-46701071D01*
X130813571Y-46272500D02*
X129313571Y-46272500D01*
X129527857Y-46415357D01*
X129670714Y-46558214D01*
X129742142Y-46701071D01*
D11*
X159458571Y-38642857D02*
X159344285Y-38585714D01*
X159287142Y-38471428D01*
X159287142Y-37442857D01*
X160430000Y-38642857D02*
X160430000Y-38014285D01*
X160372857Y-37900000D01*
X160258571Y-37842857D01*
X160030000Y-37842857D01*
X159915714Y-37900000D01*
X160430000Y-38585714D02*
X160315714Y-38642857D01*
X160030000Y-38642857D01*
X159915714Y-38585714D01*
X159858571Y-38471428D01*
X159858571Y-38357142D01*
X159915714Y-38242857D01*
X160030000Y-38185714D01*
X160315714Y-38185714D01*
X160430000Y-38128571D01*
X160944285Y-38585714D02*
X161058571Y-38642857D01*
X161287142Y-38642857D01*
X161401428Y-38585714D01*
X161458571Y-38471428D01*
X161458571Y-38414285D01*
X161401428Y-38300000D01*
X161287142Y-38242857D01*
X161115714Y-38242857D01*
X161001428Y-38185714D01*
X160944285Y-38071428D01*
X160944285Y-38014285D01*
X161001428Y-37900000D01*
X161115714Y-37842857D01*
X161287142Y-37842857D01*
X161401428Y-37900000D01*
X162430000Y-38585714D02*
X162315714Y-38642857D01*
X162087142Y-38642857D01*
X161972857Y-38585714D01*
X161915714Y-38471428D01*
X161915714Y-38014285D01*
X161972857Y-37900000D01*
X162087142Y-37842857D01*
X162315714Y-37842857D01*
X162430000Y-37900000D01*
X162487142Y-38014285D01*
X162487142Y-38128571D01*
X161915714Y-38242857D01*
X163001428Y-38642857D02*
X163001428Y-37842857D01*
X163001428Y-38071428D02*
X163058571Y-37957142D01*
X163115714Y-37900000D01*
X163230000Y-37842857D01*
X163344285Y-37842857D01*
X164658571Y-38642857D02*
X164658571Y-37442857D01*
X165172857Y-38642857D02*
X165172857Y-38014285D01*
X165115714Y-37900000D01*
X165001428Y-37842857D01*
X164830000Y-37842857D01*
X164715714Y-37900000D01*
X164658571Y-37957142D01*
X166201428Y-38585714D02*
X166087142Y-38642857D01*
X165858571Y-38642857D01*
X165744285Y-38585714D01*
X165687142Y-38471428D01*
X165687142Y-38014285D01*
X165744285Y-37900000D01*
X165858571Y-37842857D01*
X166087142Y-37842857D01*
X166201428Y-37900000D01*
X166258571Y-38014285D01*
X166258571Y-38128571D01*
X165687142Y-38242857D01*
X167287142Y-38642857D02*
X167287142Y-38014285D01*
X167230000Y-37900000D01*
X167115714Y-37842857D01*
X166887142Y-37842857D01*
X166772857Y-37900000D01*
X167287142Y-38585714D02*
X167172857Y-38642857D01*
X166887142Y-38642857D01*
X166772857Y-38585714D01*
X166715714Y-38471428D01*
X166715714Y-38357142D01*
X166772857Y-38242857D01*
X166887142Y-38185714D01*
X167172857Y-38185714D01*
X167287142Y-38128571D01*
X168372857Y-38642857D02*
X168372857Y-37442857D01*
X168372857Y-38585714D02*
X168258571Y-38642857D01*
X168030000Y-38642857D01*
X167915714Y-38585714D01*
X167858571Y-38528571D01*
X167801428Y-38414285D01*
X167801428Y-38071428D01*
X167858571Y-37957142D01*
X167915714Y-37900000D01*
X168030000Y-37842857D01*
X168258571Y-37842857D01*
X168372857Y-37900000D01*
X139100000Y-40919285D02*
X139042857Y-41033571D01*
X139042857Y-41205000D01*
X139100000Y-41376428D01*
X139214285Y-41490714D01*
X139328571Y-41547857D01*
X139557142Y-41605000D01*
X139728571Y-41605000D01*
X139957142Y-41547857D01*
X140071428Y-41490714D01*
X140185714Y-41376428D01*
X140242857Y-41205000D01*
X140242857Y-41090714D01*
X140185714Y-40919285D01*
X140128571Y-40862142D01*
X139728571Y-40862142D01*
X139728571Y-41090714D01*
X140242857Y-40347857D02*
X139042857Y-40347857D01*
X140242857Y-39662142D01*
X139042857Y-39662142D01*
X140242857Y-39090714D02*
X139042857Y-39090714D01*
X139042857Y-38805000D01*
X139100000Y-38633571D01*
X139214285Y-38519285D01*
X139328571Y-38462142D01*
X139557142Y-38405000D01*
X139728571Y-38405000D01*
X139957142Y-38462142D01*
X140071428Y-38519285D01*
X140185714Y-38633571D01*
X140242857Y-38805000D01*
X140242857Y-39090714D01*
X144122857Y-40233571D02*
X144122857Y-40805000D01*
X144694285Y-40862142D01*
X144637142Y-40805000D01*
X144580000Y-40690714D01*
X144580000Y-40405000D01*
X144637142Y-40290714D01*
X144694285Y-40233571D01*
X144808571Y-40176428D01*
X145094285Y-40176428D01*
X145208571Y-40233571D01*
X145265714Y-40290714D01*
X145322857Y-40405000D01*
X145322857Y-40690714D01*
X145265714Y-40805000D01*
X145208571Y-40862142D01*
X144122857Y-39833571D02*
X145322857Y-39433571D01*
X144122857Y-39033571D01*
X150402857Y-40747857D02*
X150402857Y-41433571D01*
X150402857Y-41090714D02*
X149202857Y-41090714D01*
X149374285Y-41205000D01*
X149488571Y-41319285D01*
X149545714Y-41433571D01*
X149317142Y-40290714D02*
X149260000Y-40233571D01*
X149202857Y-40119285D01*
X149202857Y-39833571D01*
X149260000Y-39719285D01*
X149317142Y-39662142D01*
X149431428Y-39605000D01*
X149545714Y-39605000D01*
X149717142Y-39662142D01*
X150402857Y-40347857D01*
X150402857Y-39605000D01*
X149202857Y-39262142D02*
X150402857Y-38862142D01*
X149202857Y-38462142D01*
X136201428Y-70335714D02*
X136315714Y-70392857D01*
X136544285Y-70392857D01*
X136658571Y-70335714D01*
X136715714Y-70221428D01*
X136715714Y-70164285D01*
X136658571Y-70050000D01*
X136544285Y-69992857D01*
X136372857Y-69992857D01*
X136258571Y-69935714D01*
X136201428Y-69821428D01*
X136201428Y-69764285D01*
X136258571Y-69650000D01*
X136372857Y-69592857D01*
X136544285Y-69592857D01*
X136658571Y-69650000D01*
X137230000Y-69592857D02*
X137230000Y-70792857D01*
X137230000Y-69650000D02*
X137344285Y-69592857D01*
X137572857Y-69592857D01*
X137687142Y-69650000D01*
X137744285Y-69707142D01*
X137801428Y-69821428D01*
X137801428Y-70164285D01*
X137744285Y-70278571D01*
X137687142Y-70335714D01*
X137572857Y-70392857D01*
X137344285Y-70392857D01*
X137230000Y-70335714D01*
X138830000Y-70392857D02*
X138830000Y-69764285D01*
X138772857Y-69650000D01*
X138658571Y-69592857D01*
X138430000Y-69592857D01*
X138315714Y-69650000D01*
X138830000Y-70335714D02*
X138715714Y-70392857D01*
X138430000Y-70392857D01*
X138315714Y-70335714D01*
X138258571Y-70221428D01*
X138258571Y-70107142D01*
X138315714Y-69992857D01*
X138430000Y-69935714D01*
X138715714Y-69935714D01*
X138830000Y-69878571D01*
X139401428Y-70392857D02*
X139401428Y-69592857D01*
X139401428Y-69821428D02*
X139458571Y-69707142D01*
X139515714Y-69650000D01*
X139630000Y-69592857D01*
X139744285Y-69592857D01*
X140601428Y-70335714D02*
X140487142Y-70392857D01*
X140258571Y-70392857D01*
X140144285Y-70335714D01*
X140087142Y-70221428D01*
X140087142Y-69764285D01*
X140144285Y-69650000D01*
X140258571Y-69592857D01*
X140487142Y-69592857D01*
X140601428Y-69650000D01*
X140658571Y-69764285D01*
X140658571Y-69878571D01*
X140087142Y-69992857D01*
X136201428Y-59432857D02*
X136430000Y-60232857D01*
X136658571Y-59661428D01*
X136887142Y-60232857D01*
X137115714Y-59432857D01*
X138087142Y-60232857D02*
X138087142Y-59604285D01*
X138030000Y-59490000D01*
X137915714Y-59432857D01*
X137687142Y-59432857D01*
X137572857Y-59490000D01*
X138087142Y-60175714D02*
X137972857Y-60232857D01*
X137687142Y-60232857D01*
X137572857Y-60175714D01*
X137515714Y-60061428D01*
X137515714Y-59947142D01*
X137572857Y-59832857D01*
X137687142Y-59775714D01*
X137972857Y-59775714D01*
X138087142Y-59718571D01*
X138487142Y-59432857D02*
X138944285Y-59432857D01*
X138658571Y-59032857D02*
X138658571Y-60061428D01*
X138715714Y-60175714D01*
X138830000Y-60232857D01*
X138944285Y-60232857D01*
X139801428Y-60175714D02*
X139687142Y-60232857D01*
X139458571Y-60232857D01*
X139344285Y-60175714D01*
X139287142Y-60061428D01*
X139287142Y-59604285D01*
X139344285Y-59490000D01*
X139458571Y-59432857D01*
X139687142Y-59432857D01*
X139801428Y-59490000D01*
X139858571Y-59604285D01*
X139858571Y-59718571D01*
X139287142Y-59832857D01*
X140372857Y-60232857D02*
X140372857Y-59432857D01*
X140372857Y-59661428D02*
X140430000Y-59547142D01*
X140487142Y-59490000D01*
X140601428Y-59432857D01*
X140715714Y-59432857D01*
X137230000Y-50072857D02*
X137230000Y-48872857D01*
X137230000Y-50015714D02*
X137115714Y-50072857D01*
X136887142Y-50072857D01*
X136772857Y-50015714D01*
X136715714Y-49958571D01*
X136658571Y-49844285D01*
X136658571Y-49501428D01*
X136715714Y-49387142D01*
X136772857Y-49330000D01*
X136887142Y-49272857D01*
X137115714Y-49272857D01*
X137230000Y-49330000D01*
X137972857Y-50072857D02*
X137858571Y-50015714D01*
X137801428Y-49958571D01*
X137744285Y-49844285D01*
X137744285Y-49501428D01*
X137801428Y-49387142D01*
X137858571Y-49330000D01*
X137972857Y-49272857D01*
X138144285Y-49272857D01*
X138258571Y-49330000D01*
X138315714Y-49387142D01*
X138372857Y-49501428D01*
X138372857Y-49844285D01*
X138315714Y-49958571D01*
X138258571Y-50015714D01*
X138144285Y-50072857D01*
X137972857Y-50072857D01*
X139058571Y-50072857D02*
X138944285Y-50015714D01*
X138887142Y-49958571D01*
X138830000Y-49844285D01*
X138830000Y-49501428D01*
X138887142Y-49387142D01*
X138944285Y-49330000D01*
X139058571Y-49272857D01*
X139230000Y-49272857D01*
X139344285Y-49330000D01*
X139401428Y-49387142D01*
X139458571Y-49501428D01*
X139458571Y-49844285D01*
X139401428Y-49958571D01*
X139344285Y-50015714D01*
X139230000Y-50072857D01*
X139058571Y-50072857D01*
X139972857Y-50072857D02*
X139972857Y-49272857D01*
X139972857Y-49501428D02*
X140030000Y-49387142D01*
X140087142Y-49330000D01*
X140201428Y-49272857D01*
X140315714Y-49272857D01*
X147701428Y-70392857D02*
X147587142Y-70335714D01*
X147530000Y-70278571D01*
X147472857Y-70164285D01*
X147472857Y-69821428D01*
X147530000Y-69707142D01*
X147587142Y-69650000D01*
X147701428Y-69592857D01*
X147872857Y-69592857D01*
X147987142Y-69650000D01*
X148044285Y-69707142D01*
X148101428Y-69821428D01*
X148101428Y-70164285D01*
X148044285Y-70278571D01*
X147987142Y-70335714D01*
X147872857Y-70392857D01*
X147701428Y-70392857D01*
X148444285Y-69592857D02*
X148901428Y-69592857D01*
X148615714Y-70392857D02*
X148615714Y-69364285D01*
X148672857Y-69250000D01*
X148787142Y-69192857D01*
X148901428Y-69192857D01*
X149130000Y-69592857D02*
X149587142Y-69592857D01*
X149301428Y-70392857D02*
X149301428Y-69364285D01*
X149358571Y-69250000D01*
X149472857Y-69192857D01*
X149587142Y-69192857D01*
X151072857Y-70392857D02*
X150958571Y-70335714D01*
X150901428Y-70221428D01*
X150901428Y-69192857D01*
X152044285Y-70392857D02*
X152044285Y-69764285D01*
X151987142Y-69650000D01*
X151872857Y-69592857D01*
X151644285Y-69592857D01*
X151530000Y-69650000D01*
X152044285Y-70335714D02*
X151930000Y-70392857D01*
X151644285Y-70392857D01*
X151530000Y-70335714D01*
X151472857Y-70221428D01*
X151472857Y-70107142D01*
X151530000Y-69992857D01*
X151644285Y-69935714D01*
X151930000Y-69935714D01*
X152044285Y-69878571D01*
X152615714Y-70392857D02*
X152615714Y-69592857D01*
X152615714Y-69707142D02*
X152672857Y-69650000D01*
X152787142Y-69592857D01*
X152958571Y-69592857D01*
X153072857Y-69650000D01*
X153130000Y-69764285D01*
X153130000Y-70392857D01*
X153130000Y-69764285D02*
X153187142Y-69650000D01*
X153301428Y-69592857D01*
X153472857Y-69592857D01*
X153587142Y-69650000D01*
X153644285Y-69764285D01*
X153644285Y-70392857D01*
X154215714Y-69592857D02*
X154215714Y-70792857D01*
X154215714Y-69650000D02*
X154330000Y-69592857D01*
X154558571Y-69592857D01*
X154672857Y-69650000D01*
X154730000Y-69707142D01*
X154787142Y-69821428D01*
X154787142Y-70164285D01*
X154730000Y-70278571D01*
X154672857Y-70335714D01*
X154558571Y-70392857D01*
X154330000Y-70392857D01*
X154215714Y-70335714D01*
X147844285Y-60232857D02*
X147730000Y-60175714D01*
X147672857Y-60118571D01*
X147615714Y-60004285D01*
X147615714Y-59661428D01*
X147672857Y-59547142D01*
X147730000Y-59490000D01*
X147844285Y-59432857D01*
X148015714Y-59432857D01*
X148130000Y-59490000D01*
X148187142Y-59547142D01*
X148244285Y-59661428D01*
X148244285Y-60004285D01*
X148187142Y-60118571D01*
X148130000Y-60175714D01*
X148015714Y-60232857D01*
X147844285Y-60232857D01*
X148758571Y-59432857D02*
X148758571Y-60232857D01*
X148758571Y-59547142D02*
X148815714Y-59490000D01*
X148930000Y-59432857D01*
X149101428Y-59432857D01*
X149215714Y-59490000D01*
X149272857Y-59604285D01*
X149272857Y-60232857D01*
X150930000Y-60232857D02*
X150815714Y-60175714D01*
X150758571Y-60061428D01*
X150758571Y-59032857D01*
X151901428Y-60232857D02*
X151901428Y-59604285D01*
X151844285Y-59490000D01*
X151730000Y-59432857D01*
X151501428Y-59432857D01*
X151387142Y-59490000D01*
X151901428Y-60175714D02*
X151787142Y-60232857D01*
X151501428Y-60232857D01*
X151387142Y-60175714D01*
X151330000Y-60061428D01*
X151330000Y-59947142D01*
X151387142Y-59832857D01*
X151501428Y-59775714D01*
X151787142Y-59775714D01*
X151901428Y-59718571D01*
X152472857Y-60232857D02*
X152472857Y-59432857D01*
X152472857Y-59547142D02*
X152530000Y-59490000D01*
X152644285Y-59432857D01*
X152815714Y-59432857D01*
X152930000Y-59490000D01*
X152987142Y-59604285D01*
X152987142Y-60232857D01*
X152987142Y-59604285D02*
X153044285Y-59490000D01*
X153158571Y-59432857D01*
X153330000Y-59432857D01*
X153444285Y-59490000D01*
X153501428Y-59604285D01*
X153501428Y-60232857D01*
X154072857Y-59432857D02*
X154072857Y-60632857D01*
X154072857Y-59490000D02*
X154187142Y-59432857D01*
X154415714Y-59432857D01*
X154530000Y-59490000D01*
X154587142Y-59547142D01*
X154644285Y-59661428D01*
X154644285Y-60004285D01*
X154587142Y-60118571D01*
X154530000Y-60175714D01*
X154415714Y-60232857D01*
X154187142Y-60232857D01*
X154072857Y-60175714D01*
X149615714Y-49722857D02*
X149615714Y-48522857D01*
X150072857Y-48522857D01*
X150187142Y-48580000D01*
X150244285Y-48637142D01*
X150301428Y-48751428D01*
X150301428Y-48922857D01*
X150244285Y-49037142D01*
X150187142Y-49094285D01*
X150072857Y-49151428D01*
X149615714Y-49151428D01*
X150758571Y-49665714D02*
X150930000Y-49722857D01*
X151215714Y-49722857D01*
X151330000Y-49665714D01*
X151387142Y-49608571D01*
X151444285Y-49494285D01*
X151444285Y-49380000D01*
X151387142Y-49265714D01*
X151330000Y-49208571D01*
X151215714Y-49151428D01*
X150987142Y-49094285D01*
X150872857Y-49037142D01*
X150815714Y-48980000D01*
X150758571Y-48865714D01*
X150758571Y-48751428D01*
X150815714Y-48637142D01*
X150872857Y-48580000D01*
X150987142Y-48522857D01*
X151272857Y-48522857D01*
X151444285Y-48580000D01*
X151958571Y-48522857D02*
X151958571Y-49494285D01*
X152015714Y-49608571D01*
X152072857Y-49665714D01*
X152187142Y-49722857D01*
X152415714Y-49722857D01*
X152530000Y-49665714D01*
X152587142Y-49608571D01*
X152644285Y-49494285D01*
X152644285Y-48522857D01*
X149730000Y-50892857D02*
X150187142Y-50892857D01*
X149901428Y-51692857D02*
X149901428Y-50664285D01*
X149958571Y-50550000D01*
X150072857Y-50492857D01*
X150187142Y-50492857D01*
X150587142Y-51692857D02*
X150587142Y-50892857D01*
X150587142Y-50492857D02*
X150530000Y-50550000D01*
X150587142Y-50607142D01*
X150644285Y-50550000D01*
X150587142Y-50492857D01*
X150587142Y-50607142D01*
X151158571Y-51692857D02*
X151158571Y-50892857D01*
X151158571Y-51121428D02*
X151215714Y-51007142D01*
X151272857Y-50950000D01*
X151387142Y-50892857D01*
X151501428Y-50892857D01*
X152358571Y-51635714D02*
X152244285Y-51692857D01*
X152015714Y-51692857D01*
X151901428Y-51635714D01*
X151844285Y-51521428D01*
X151844285Y-51064285D01*
X151901428Y-50950000D01*
X152015714Y-50892857D01*
X152244285Y-50892857D01*
X152358571Y-50950000D01*
X152415714Y-51064285D01*
X152415714Y-51178571D01*
X151844285Y-51292857D01*
X162172857Y-70042857D02*
X162058571Y-69985714D01*
X162001428Y-69871428D01*
X162001428Y-68842857D01*
X163087142Y-69985714D02*
X162972857Y-70042857D01*
X162744285Y-70042857D01*
X162630000Y-69985714D01*
X162572857Y-69871428D01*
X162572857Y-69414285D01*
X162630000Y-69300000D01*
X162744285Y-69242857D01*
X162972857Y-69242857D01*
X163087142Y-69300000D01*
X163144285Y-69414285D01*
X163144285Y-69528571D01*
X162572857Y-69642857D01*
X163544285Y-69242857D02*
X163830000Y-70042857D01*
X164115714Y-69242857D01*
X165030000Y-69985714D02*
X164915714Y-70042857D01*
X164687142Y-70042857D01*
X164572857Y-69985714D01*
X164515714Y-69871428D01*
X164515714Y-69414285D01*
X164572857Y-69300000D01*
X164687142Y-69242857D01*
X164915714Y-69242857D01*
X165030000Y-69300000D01*
X165087142Y-69414285D01*
X165087142Y-69528571D01*
X164515714Y-69642857D01*
X165772857Y-70042857D02*
X165658571Y-69985714D01*
X165601428Y-69871428D01*
X165601428Y-68842857D01*
X160144285Y-72012857D02*
X160144285Y-71212857D01*
X160144285Y-70812857D02*
X160087142Y-70870000D01*
X160144285Y-70927142D01*
X160201428Y-70870000D01*
X160144285Y-70812857D01*
X160144285Y-70927142D01*
X160715714Y-71212857D02*
X160715714Y-72012857D01*
X160715714Y-71327142D02*
X160772857Y-71270000D01*
X160887142Y-71212857D01*
X161058571Y-71212857D01*
X161172857Y-71270000D01*
X161230000Y-71384285D01*
X161230000Y-72012857D01*
X162315714Y-72012857D02*
X162315714Y-70812857D01*
X162315714Y-71955714D02*
X162201428Y-72012857D01*
X161972857Y-72012857D01*
X161858571Y-71955714D01*
X161801428Y-71898571D01*
X161744285Y-71784285D01*
X161744285Y-71441428D01*
X161801428Y-71327142D01*
X161858571Y-71270000D01*
X161972857Y-71212857D01*
X162201428Y-71212857D01*
X162315714Y-71270000D01*
X162887142Y-72012857D02*
X162887142Y-71212857D01*
X162887142Y-70812857D02*
X162830000Y-70870000D01*
X162887142Y-70927142D01*
X162944285Y-70870000D01*
X162887142Y-70812857D01*
X162887142Y-70927142D01*
X163972857Y-71955714D02*
X163858571Y-72012857D01*
X163630000Y-72012857D01*
X163515714Y-71955714D01*
X163458571Y-71898571D01*
X163401428Y-71784285D01*
X163401428Y-71441428D01*
X163458571Y-71327142D01*
X163515714Y-71270000D01*
X163630000Y-71212857D01*
X163858571Y-71212857D01*
X163972857Y-71270000D01*
X165001428Y-72012857D02*
X165001428Y-71384285D01*
X164944285Y-71270000D01*
X164830000Y-71212857D01*
X164601428Y-71212857D01*
X164487142Y-71270000D01*
X165001428Y-71955714D02*
X164887142Y-72012857D01*
X164601428Y-72012857D01*
X164487142Y-71955714D01*
X164430000Y-71841428D01*
X164430000Y-71727142D01*
X164487142Y-71612857D01*
X164601428Y-71555714D01*
X164887142Y-71555714D01*
X165001428Y-71498571D01*
X165401428Y-71212857D02*
X165858571Y-71212857D01*
X165572857Y-70812857D02*
X165572857Y-71841428D01*
X165630000Y-71955714D01*
X165744285Y-72012857D01*
X165858571Y-72012857D01*
X166430000Y-72012857D02*
X166315714Y-71955714D01*
X166258571Y-71898571D01*
X166201428Y-71784285D01*
X166201428Y-71441428D01*
X166258571Y-71327142D01*
X166315714Y-71270000D01*
X166430000Y-71212857D01*
X166601428Y-71212857D01*
X166715714Y-71270000D01*
X166772857Y-71327142D01*
X166830000Y-71441428D01*
X166830000Y-71784285D01*
X166772857Y-71898571D01*
X166715714Y-71955714D01*
X166601428Y-72012857D01*
X166430000Y-72012857D01*
X167344285Y-72012857D02*
X167344285Y-71212857D01*
X167344285Y-71441428D02*
X167401428Y-71327142D01*
X167458571Y-71270000D01*
X167572857Y-71212857D01*
X167687142Y-71212857D01*
X161858571Y-59082857D02*
X161858571Y-60282857D01*
X161858571Y-59140000D02*
X161972857Y-59082857D01*
X162201428Y-59082857D01*
X162315714Y-59140000D01*
X162372857Y-59197142D01*
X162430000Y-59311428D01*
X162430000Y-59654285D01*
X162372857Y-59768571D01*
X162315714Y-59825714D01*
X162201428Y-59882857D01*
X161972857Y-59882857D01*
X161858571Y-59825714D01*
X163115714Y-59882857D02*
X163001428Y-59825714D01*
X162944285Y-59768571D01*
X162887142Y-59654285D01*
X162887142Y-59311428D01*
X162944285Y-59197142D01*
X163001428Y-59140000D01*
X163115714Y-59082857D01*
X163287142Y-59082857D01*
X163401428Y-59140000D01*
X163458571Y-59197142D01*
X163515714Y-59311428D01*
X163515714Y-59654285D01*
X163458571Y-59768571D01*
X163401428Y-59825714D01*
X163287142Y-59882857D01*
X163115714Y-59882857D01*
X164030000Y-59882857D02*
X164030000Y-59082857D01*
X164030000Y-58682857D02*
X163972857Y-58740000D01*
X164030000Y-58797142D01*
X164087142Y-58740000D01*
X164030000Y-58682857D01*
X164030000Y-58797142D01*
X164601428Y-59082857D02*
X164601428Y-59882857D01*
X164601428Y-59197142D02*
X164658571Y-59140000D01*
X164772857Y-59082857D01*
X164944285Y-59082857D01*
X165058571Y-59140000D01*
X165115714Y-59254285D01*
X165115714Y-59882857D01*
X165515714Y-59082857D02*
X165972857Y-59082857D01*
X165687142Y-58682857D02*
X165687142Y-59711428D01*
X165744285Y-59825714D01*
X165858571Y-59882857D01*
X165972857Y-59882857D01*
X160144285Y-61852857D02*
X160144285Y-61052857D01*
X160144285Y-60652857D02*
X160087142Y-60710000D01*
X160144285Y-60767142D01*
X160201428Y-60710000D01*
X160144285Y-60652857D01*
X160144285Y-60767142D01*
X160715714Y-61052857D02*
X160715714Y-61852857D01*
X160715714Y-61167142D02*
X160772857Y-61110000D01*
X160887142Y-61052857D01*
X161058571Y-61052857D01*
X161172857Y-61110000D01*
X161230000Y-61224285D01*
X161230000Y-61852857D01*
X162315714Y-61852857D02*
X162315714Y-60652857D01*
X162315714Y-61795714D02*
X162201428Y-61852857D01*
X161972857Y-61852857D01*
X161858571Y-61795714D01*
X161801428Y-61738571D01*
X161744285Y-61624285D01*
X161744285Y-61281428D01*
X161801428Y-61167142D01*
X161858571Y-61110000D01*
X161972857Y-61052857D01*
X162201428Y-61052857D01*
X162315714Y-61110000D01*
X162887142Y-61852857D02*
X162887142Y-61052857D01*
X162887142Y-60652857D02*
X162830000Y-60710000D01*
X162887142Y-60767142D01*
X162944285Y-60710000D01*
X162887142Y-60652857D01*
X162887142Y-60767142D01*
X163972857Y-61795714D02*
X163858571Y-61852857D01*
X163630000Y-61852857D01*
X163515714Y-61795714D01*
X163458571Y-61738571D01*
X163401428Y-61624285D01*
X163401428Y-61281428D01*
X163458571Y-61167142D01*
X163515714Y-61110000D01*
X163630000Y-61052857D01*
X163858571Y-61052857D01*
X163972857Y-61110000D01*
X165001428Y-61852857D02*
X165001428Y-61224285D01*
X164944285Y-61110000D01*
X164830000Y-61052857D01*
X164601428Y-61052857D01*
X164487142Y-61110000D01*
X165001428Y-61795714D02*
X164887142Y-61852857D01*
X164601428Y-61852857D01*
X164487142Y-61795714D01*
X164430000Y-61681428D01*
X164430000Y-61567142D01*
X164487142Y-61452857D01*
X164601428Y-61395714D01*
X164887142Y-61395714D01*
X165001428Y-61338571D01*
X165401428Y-61052857D02*
X165858571Y-61052857D01*
X165572857Y-60652857D02*
X165572857Y-61681428D01*
X165630000Y-61795714D01*
X165744285Y-61852857D01*
X165858571Y-61852857D01*
X166430000Y-61852857D02*
X166315714Y-61795714D01*
X166258571Y-61738571D01*
X166201428Y-61624285D01*
X166201428Y-61281428D01*
X166258571Y-61167142D01*
X166315714Y-61110000D01*
X166430000Y-61052857D01*
X166601428Y-61052857D01*
X166715714Y-61110000D01*
X166772857Y-61167142D01*
X166830000Y-61281428D01*
X166830000Y-61624285D01*
X166772857Y-61738571D01*
X166715714Y-61795714D01*
X166601428Y-61852857D01*
X166430000Y-61852857D01*
X167344285Y-61852857D02*
X167344285Y-61052857D01*
X167344285Y-61281428D02*
X167401428Y-61167142D01*
X167458571Y-61110000D01*
X167572857Y-61052857D01*
X167687142Y-61052857D01*
X163430000Y-49722857D02*
X163430000Y-49094285D01*
X163372857Y-48980000D01*
X163258571Y-48922857D01*
X163030000Y-48922857D01*
X162915714Y-48980000D01*
X163430000Y-49665714D02*
X163315714Y-49722857D01*
X163030000Y-49722857D01*
X162915714Y-49665714D01*
X162858571Y-49551428D01*
X162858571Y-49437142D01*
X162915714Y-49322857D01*
X163030000Y-49265714D01*
X163315714Y-49265714D01*
X163430000Y-49208571D01*
X164001428Y-49722857D02*
X164001428Y-48922857D01*
X164001428Y-48522857D02*
X163944285Y-48580000D01*
X164001428Y-48637142D01*
X164058571Y-48580000D01*
X164001428Y-48522857D01*
X164001428Y-48637142D01*
X164572857Y-49722857D02*
X164572857Y-48922857D01*
X164572857Y-49151428D02*
X164630000Y-49037142D01*
X164687142Y-48980000D01*
X164801428Y-48922857D01*
X164915714Y-48922857D01*
X162001428Y-51692857D02*
X162001428Y-51064285D01*
X161944285Y-50950000D01*
X161830000Y-50892857D01*
X161601428Y-50892857D01*
X161487142Y-50950000D01*
X162001428Y-51635714D02*
X161887142Y-51692857D01*
X161601428Y-51692857D01*
X161487142Y-51635714D01*
X161430000Y-51521428D01*
X161430000Y-51407142D01*
X161487142Y-51292857D01*
X161601428Y-51235714D01*
X161887142Y-51235714D01*
X162001428Y-51178571D01*
X162515714Y-51635714D02*
X162630000Y-51692857D01*
X162858571Y-51692857D01*
X162972857Y-51635714D01*
X163030000Y-51521428D01*
X163030000Y-51464285D01*
X162972857Y-51350000D01*
X162858571Y-51292857D01*
X162687142Y-51292857D01*
X162572857Y-51235714D01*
X162515714Y-51121428D01*
X162515714Y-51064285D01*
X162572857Y-50950000D01*
X162687142Y-50892857D01*
X162858571Y-50892857D01*
X162972857Y-50950000D01*
X163487142Y-51635714D02*
X163601428Y-51692857D01*
X163830000Y-51692857D01*
X163944285Y-51635714D01*
X164001428Y-51521428D01*
X164001428Y-51464285D01*
X163944285Y-51350000D01*
X163830000Y-51292857D01*
X163658571Y-51292857D01*
X163544285Y-51235714D01*
X163487142Y-51121428D01*
X163487142Y-51064285D01*
X163544285Y-50950000D01*
X163658571Y-50892857D01*
X163830000Y-50892857D01*
X163944285Y-50950000D01*
X164515714Y-51692857D02*
X164515714Y-50892857D01*
X164515714Y-50492857D02*
X164458571Y-50550000D01*
X164515714Y-50607142D01*
X164572857Y-50550000D01*
X164515714Y-50492857D01*
X164515714Y-50607142D01*
X165030000Y-51635714D02*
X165144285Y-51692857D01*
X165372857Y-51692857D01*
X165487142Y-51635714D01*
X165544285Y-51521428D01*
X165544285Y-51464285D01*
X165487142Y-51350000D01*
X165372857Y-51292857D01*
X165201428Y-51292857D01*
X165087142Y-51235714D01*
X165030000Y-51121428D01*
X165030000Y-51064285D01*
X165087142Y-50950000D01*
X165201428Y-50892857D01*
X165372857Y-50892857D01*
X165487142Y-50950000D01*
X165887142Y-50892857D02*
X166344285Y-50892857D01*
X166058571Y-50492857D02*
X166058571Y-51521428D01*
X166115714Y-51635714D01*
X166230000Y-51692857D01*
X166344285Y-51692857D01*
D12*
%TO.C,J4*%
X152660000Y-28120000D02*
X152160000Y-28120000D01*
X152660000Y-28860000D02*
X152660000Y-28120000D01*
X141087000Y-31997000D02*
X141134000Y-31951000D01*
X138790000Y-34295000D02*
X138825000Y-34259000D01*
X140894000Y-31781000D02*
X140929000Y-31746000D01*
X138585000Y-34089000D02*
X138632000Y-34043000D01*
X146087000Y-31997000D02*
X146134000Y-31951000D01*
X143790000Y-34295000D02*
X143825000Y-34259000D01*
X145894000Y-31781000D02*
X145929000Y-31746000D01*
X143585000Y-34089000D02*
X143632000Y-34043000D01*
X137300000Y-38281000D02*
X137300000Y-28360000D01*
X152420000Y-38281000D02*
X152420000Y-28360000D01*
X152420000Y-28360000D02*
X137300000Y-28360000D01*
X152420000Y-38281000D02*
X137300000Y-38281000D01*
X152420000Y-35321000D02*
X137300000Y-35321000D01*
X152420000Y-30420000D02*
X137300000Y-30420000D01*
X152420000Y-28920000D02*
X137300000Y-28920000D01*
X141540000Y-33020000D02*
G75*
G03*
X141540000Y-33020000I-1680000J0D01*
G01*
X146540000Y-33020000D02*
G75*
G03*
X146540000Y-33020000I-1680000J0D01*
G01*
X149176682Y-31485244D02*
G75*
G02*
X149860000Y-31340000I683318J-1534756D01*
G01*
X148324574Y-33703042D02*
G75*
G02*
X148325000Y-32336000I1535426J683042D01*
G01*
X150543042Y-34555426D02*
G75*
G02*
X149176000Y-34555000I-683042J1535426D01*
G01*
X151395426Y-32336958D02*
G75*
G02*
X151395000Y-33704000I-1535426J-683042D01*
G01*
X149831195Y-31339747D02*
G75*
G02*
X150544000Y-31485000I28805J-1680253D01*
G01*
%TO.C,J5*%
X154630000Y-30270000D02*
X154630000Y-31520000D01*
X155880000Y-30270000D02*
X154630000Y-30270000D01*
X171780000Y-35770000D02*
X163730000Y-35770000D01*
X171780000Y-32820000D02*
X171780000Y-35770000D01*
X172530000Y-32820000D02*
X171780000Y-32820000D01*
X155680000Y-35770000D02*
X163730000Y-35770000D01*
X155680000Y-32820000D02*
X155680000Y-35770000D01*
X154930000Y-32820000D02*
X155680000Y-32820000D01*
X172530000Y-30570000D02*
X170730000Y-30570000D01*
X172530000Y-31320000D02*
X172530000Y-30570000D01*
X170730000Y-31320000D02*
X172530000Y-31320000D01*
X170730000Y-30570000D02*
X170730000Y-31320000D01*
X156730000Y-30570000D02*
X154930000Y-30570000D01*
X156730000Y-31320000D02*
X156730000Y-30570000D01*
X154930000Y-31320000D02*
X156730000Y-31320000D01*
X154930000Y-30570000D02*
X154930000Y-31320000D01*
X169230000Y-30570000D02*
X158230000Y-30570000D01*
X169230000Y-31320000D02*
X169230000Y-30570000D01*
X158230000Y-31320000D02*
X169230000Y-31320000D01*
X158230000Y-30570000D02*
X158230000Y-31320000D01*
X172540000Y-30560000D02*
X154920000Y-30560000D01*
X172540000Y-36530000D02*
X172540000Y-30560000D01*
X154920000Y-36530000D02*
X172540000Y-36530000D01*
X154920000Y-30560000D02*
X154920000Y-36530000D01*
%TO.C,D1*%
X141120000Y-77720000D02*
X143360000Y-77720000D01*
X141120000Y-77480000D02*
X143360000Y-77480000D01*
X141120000Y-77600000D02*
X143360000Y-77600000D01*
X142240000Y-73430000D02*
X142240000Y-74080000D01*
X142240000Y-78970000D02*
X142240000Y-78320000D01*
X141120000Y-74080000D02*
X141120000Y-78320000D01*
X143360000Y-74080000D02*
X141120000Y-74080000D01*
X143360000Y-78320000D02*
X143360000Y-74080000D01*
X141120000Y-78320000D02*
X143360000Y-78320000D01*
%TO.C,HFD31*%
X148590000Y-75413000D02*
X149606000Y-75413000D01*
X149606000Y-77318000D02*
X149606000Y-75413000D01*
X148590000Y-77318000D02*
X149606000Y-77318000D01*
X148590000Y-75413000D02*
X148590000Y-77318000D01*
X149098000Y-74778000D02*
X149098000Y-75413000D01*
X148463000Y-74778000D02*
X149098000Y-74778000D01*
X149098000Y-78040000D02*
X149098000Y-77318000D01*
X148820000Y-78040000D02*
X149098000Y-78040000D01*
X148590000Y-75794000D02*
X149606000Y-76429000D01*
X146020000Y-80140000D02*
X146020000Y-72340000D01*
X146020000Y-72340000D02*
X161220000Y-72340000D01*
X161220000Y-72340000D02*
X161220000Y-80140000D01*
X161220000Y-80140000D02*
X146020000Y-80140000D01*
X147920000Y-80340000D02*
X145820000Y-80340000D01*
X145820000Y-80340000D02*
X145820000Y-78140000D01*
%TO.C,J1*%
X167620000Y-48180000D02*
X167620000Y-42210000D01*
X167620000Y-42210000D02*
X160000000Y-42210000D01*
X160000000Y-42210000D02*
X160000000Y-48180000D01*
X160000000Y-48180000D02*
X167620000Y-48180000D01*
X164310000Y-48170000D02*
X164310000Y-47420000D01*
X164310000Y-47420000D02*
X163310000Y-47420000D01*
X163310000Y-47420000D02*
X163310000Y-48170000D01*
X163310000Y-48170000D02*
X164310000Y-48170000D01*
X167610000Y-48170000D02*
X167610000Y-47420000D01*
X167610000Y-47420000D02*
X165810000Y-47420000D01*
X165810000Y-47420000D02*
X165810000Y-48170000D01*
X165810000Y-48170000D02*
X167610000Y-48170000D01*
X161810000Y-48170000D02*
X161810000Y-47420000D01*
X161810000Y-47420000D02*
X160010000Y-47420000D01*
X160010000Y-47420000D02*
X160010000Y-48170000D01*
X160010000Y-48170000D02*
X161810000Y-48170000D01*
X167610000Y-45920000D02*
X166860000Y-45920000D01*
X166860000Y-45920000D02*
X166860000Y-42970000D01*
X166860000Y-42970000D02*
X163810000Y-42970000D01*
X160010000Y-45920000D02*
X160760000Y-45920000D01*
X160760000Y-45920000D02*
X160760000Y-42970000D01*
X160760000Y-42970000D02*
X163810000Y-42970000D01*
X166660000Y-48470000D02*
X167910000Y-48470000D01*
X167910000Y-48470000D02*
X167910000Y-47220000D01*
%TO.C,J2*%
X167910000Y-58630000D02*
X167910000Y-57380000D01*
X166660000Y-58630000D02*
X167910000Y-58630000D01*
X160760000Y-53130000D02*
X163810000Y-53130000D01*
X160760000Y-56080000D02*
X160760000Y-53130000D01*
X160010000Y-56080000D02*
X160760000Y-56080000D01*
X166860000Y-53130000D02*
X163810000Y-53130000D01*
X166860000Y-56080000D02*
X166860000Y-53130000D01*
X167610000Y-56080000D02*
X166860000Y-56080000D01*
X160010000Y-58330000D02*
X161810000Y-58330000D01*
X160010000Y-57580000D02*
X160010000Y-58330000D01*
X161810000Y-57580000D02*
X160010000Y-57580000D01*
X161810000Y-58330000D02*
X161810000Y-57580000D01*
X165810000Y-58330000D02*
X167610000Y-58330000D01*
X165810000Y-57580000D02*
X165810000Y-58330000D01*
X167610000Y-57580000D02*
X165810000Y-57580000D01*
X167610000Y-58330000D02*
X167610000Y-57580000D01*
X163310000Y-58330000D02*
X164310000Y-58330000D01*
X163310000Y-57580000D02*
X163310000Y-58330000D01*
X164310000Y-57580000D02*
X163310000Y-57580000D01*
X164310000Y-58330000D02*
X164310000Y-57580000D01*
X160000000Y-58340000D02*
X167620000Y-58340000D01*
X160000000Y-52370000D02*
X160000000Y-58340000D01*
X167620000Y-52370000D02*
X160000000Y-52370000D01*
X167620000Y-58340000D02*
X167620000Y-52370000D01*
%TO.C,J3*%
X167660000Y-68500000D02*
X167660000Y-62530000D01*
X167660000Y-62530000D02*
X160040000Y-62530000D01*
X160040000Y-62530000D02*
X160040000Y-68500000D01*
X160040000Y-68500000D02*
X167660000Y-68500000D01*
X164350000Y-68490000D02*
X164350000Y-67740000D01*
X164350000Y-67740000D02*
X163350000Y-67740000D01*
X163350000Y-67740000D02*
X163350000Y-68490000D01*
X163350000Y-68490000D02*
X164350000Y-68490000D01*
X167650000Y-68490000D02*
X167650000Y-67740000D01*
X167650000Y-67740000D02*
X165850000Y-67740000D01*
X165850000Y-67740000D02*
X165850000Y-68490000D01*
X165850000Y-68490000D02*
X167650000Y-68490000D01*
X161850000Y-68490000D02*
X161850000Y-67740000D01*
X161850000Y-67740000D02*
X160050000Y-67740000D01*
X160050000Y-67740000D02*
X160050000Y-68490000D01*
X160050000Y-68490000D02*
X161850000Y-68490000D01*
X167650000Y-66240000D02*
X166900000Y-66240000D01*
X166900000Y-66240000D02*
X166900000Y-63290000D01*
X166900000Y-63290000D02*
X163850000Y-63290000D01*
X160050000Y-66240000D02*
X160800000Y-66240000D01*
X160800000Y-66240000D02*
X160800000Y-63290000D01*
X160800000Y-63290000D02*
X163850000Y-63290000D01*
X166700000Y-68790000D02*
X167950000Y-68790000D01*
X167950000Y-68790000D02*
X167950000Y-67540000D01*
%TO.C,J6*%
X142550000Y-48470000D02*
X142550000Y-47220000D01*
X141300000Y-48470000D02*
X142550000Y-48470000D01*
X135400000Y-42970000D02*
X138450000Y-42970000D01*
X135400000Y-45920000D02*
X135400000Y-42970000D01*
X134650000Y-45920000D02*
X135400000Y-45920000D01*
X141500000Y-42970000D02*
X138450000Y-42970000D01*
X141500000Y-45920000D02*
X141500000Y-42970000D01*
X142250000Y-45920000D02*
X141500000Y-45920000D01*
X134650000Y-48170000D02*
X136450000Y-48170000D01*
X134650000Y-47420000D02*
X134650000Y-48170000D01*
X136450000Y-47420000D02*
X134650000Y-47420000D01*
X136450000Y-48170000D02*
X136450000Y-47420000D01*
X140450000Y-48170000D02*
X142250000Y-48170000D01*
X140450000Y-47420000D02*
X140450000Y-48170000D01*
X142250000Y-47420000D02*
X140450000Y-47420000D01*
X142250000Y-48170000D02*
X142250000Y-47420000D01*
X137950000Y-48170000D02*
X138950000Y-48170000D01*
X137950000Y-47420000D02*
X137950000Y-48170000D01*
X138950000Y-47420000D02*
X137950000Y-47420000D01*
X138950000Y-48170000D02*
X138950000Y-47420000D01*
X134640000Y-48180000D02*
X142260000Y-48180000D01*
X134640000Y-42210000D02*
X134640000Y-48180000D01*
X142260000Y-42210000D02*
X134640000Y-42210000D01*
X142260000Y-48180000D02*
X142260000Y-42210000D01*
%TO.C,J7*%
X142550000Y-58630000D02*
X142550000Y-57380000D01*
X141300000Y-58630000D02*
X142550000Y-58630000D01*
X135400000Y-53130000D02*
X138450000Y-53130000D01*
X135400000Y-56080000D02*
X135400000Y-53130000D01*
X134650000Y-56080000D02*
X135400000Y-56080000D01*
X141500000Y-53130000D02*
X138450000Y-53130000D01*
X141500000Y-56080000D02*
X141500000Y-53130000D01*
X142250000Y-56080000D02*
X141500000Y-56080000D01*
X134650000Y-58330000D02*
X136450000Y-58330000D01*
X134650000Y-57580000D02*
X134650000Y-58330000D01*
X136450000Y-57580000D02*
X134650000Y-57580000D01*
X136450000Y-58330000D02*
X136450000Y-57580000D01*
X140450000Y-58330000D02*
X142250000Y-58330000D01*
X140450000Y-57580000D02*
X140450000Y-58330000D01*
X142250000Y-57580000D02*
X140450000Y-57580000D01*
X142250000Y-58330000D02*
X142250000Y-57580000D01*
X137950000Y-58330000D02*
X138950000Y-58330000D01*
X137950000Y-57580000D02*
X137950000Y-58330000D01*
X138950000Y-57580000D02*
X137950000Y-57580000D01*
X138950000Y-58330000D02*
X138950000Y-57580000D01*
X134640000Y-58340000D02*
X142260000Y-58340000D01*
X134640000Y-52370000D02*
X134640000Y-58340000D01*
X142260000Y-52370000D02*
X134640000Y-52370000D01*
X142260000Y-58340000D02*
X142260000Y-52370000D01*
%TO.C,J8*%
X142550000Y-68790000D02*
X142550000Y-67540000D01*
X141300000Y-68790000D02*
X142550000Y-68790000D01*
X135400000Y-63290000D02*
X138450000Y-63290000D01*
X135400000Y-66240000D02*
X135400000Y-63290000D01*
X134650000Y-66240000D02*
X135400000Y-66240000D01*
X141500000Y-63290000D02*
X138450000Y-63290000D01*
X141500000Y-66240000D02*
X141500000Y-63290000D01*
X142250000Y-66240000D02*
X141500000Y-66240000D01*
X134650000Y-68490000D02*
X136450000Y-68490000D01*
X134650000Y-67740000D02*
X134650000Y-68490000D01*
X136450000Y-67740000D02*
X134650000Y-67740000D01*
X136450000Y-68490000D02*
X136450000Y-67740000D01*
X140450000Y-68490000D02*
X142250000Y-68490000D01*
X140450000Y-67740000D02*
X140450000Y-68490000D01*
X142250000Y-67740000D02*
X140450000Y-67740000D01*
X142250000Y-68490000D02*
X142250000Y-67740000D01*
X137950000Y-68490000D02*
X138950000Y-68490000D01*
X137950000Y-67740000D02*
X137950000Y-68490000D01*
X138950000Y-67740000D02*
X137950000Y-67740000D01*
X138950000Y-68490000D02*
X138950000Y-67740000D01*
X134640000Y-68500000D02*
X142260000Y-68500000D01*
X134640000Y-62530000D02*
X134640000Y-68500000D01*
X142260000Y-62530000D02*
X134640000Y-62530000D01*
X142260000Y-68500000D02*
X142260000Y-62530000D01*
%TO.C,J9*%
X155250000Y-48470000D02*
X155250000Y-47220000D01*
X154000000Y-48470000D02*
X155250000Y-48470000D01*
X148100000Y-42970000D02*
X151150000Y-42970000D01*
X148100000Y-45920000D02*
X148100000Y-42970000D01*
X147350000Y-45920000D02*
X148100000Y-45920000D01*
X154200000Y-42970000D02*
X151150000Y-42970000D01*
X154200000Y-45920000D02*
X154200000Y-42970000D01*
X154950000Y-45920000D02*
X154200000Y-45920000D01*
X147350000Y-48170000D02*
X149150000Y-48170000D01*
X147350000Y-47420000D02*
X147350000Y-48170000D01*
X149150000Y-47420000D02*
X147350000Y-47420000D01*
X149150000Y-48170000D02*
X149150000Y-47420000D01*
X153150000Y-48170000D02*
X154950000Y-48170000D01*
X153150000Y-47420000D02*
X153150000Y-48170000D01*
X154950000Y-47420000D02*
X153150000Y-47420000D01*
X154950000Y-48170000D02*
X154950000Y-47420000D01*
X150650000Y-48170000D02*
X151650000Y-48170000D01*
X150650000Y-47420000D02*
X150650000Y-48170000D01*
X151650000Y-47420000D02*
X150650000Y-47420000D01*
X151650000Y-48170000D02*
X151650000Y-47420000D01*
X147340000Y-48180000D02*
X154960000Y-48180000D01*
X147340000Y-42210000D02*
X147340000Y-48180000D01*
X154960000Y-42210000D02*
X147340000Y-42210000D01*
X154960000Y-48180000D02*
X154960000Y-42210000D01*
%TO.C,J10*%
X154960000Y-68500000D02*
X154960000Y-62530000D01*
X154960000Y-62530000D02*
X147340000Y-62530000D01*
X147340000Y-62530000D02*
X147340000Y-68500000D01*
X147340000Y-68500000D02*
X154960000Y-68500000D01*
X151650000Y-68490000D02*
X151650000Y-67740000D01*
X151650000Y-67740000D02*
X150650000Y-67740000D01*
X150650000Y-67740000D02*
X150650000Y-68490000D01*
X150650000Y-68490000D02*
X151650000Y-68490000D01*
X154950000Y-68490000D02*
X154950000Y-67740000D01*
X154950000Y-67740000D02*
X153150000Y-67740000D01*
X153150000Y-67740000D02*
X153150000Y-68490000D01*
X153150000Y-68490000D02*
X154950000Y-68490000D01*
X149150000Y-68490000D02*
X149150000Y-67740000D01*
X149150000Y-67740000D02*
X147350000Y-67740000D01*
X147350000Y-67740000D02*
X147350000Y-68490000D01*
X147350000Y-68490000D02*
X149150000Y-68490000D01*
X154950000Y-66240000D02*
X154200000Y-66240000D01*
X154200000Y-66240000D02*
X154200000Y-63290000D01*
X154200000Y-63290000D02*
X151150000Y-63290000D01*
X147350000Y-66240000D02*
X148100000Y-66240000D01*
X148100000Y-66240000D02*
X148100000Y-63290000D01*
X148100000Y-63290000D02*
X151150000Y-63290000D01*
X154000000Y-68790000D02*
X155250000Y-68790000D01*
X155250000Y-68790000D02*
X155250000Y-67540000D01*
%TO.C,J11*%
X154960000Y-58340000D02*
X154960000Y-52370000D01*
X154960000Y-52370000D02*
X147340000Y-52370000D01*
X147340000Y-52370000D02*
X147340000Y-58340000D01*
X147340000Y-58340000D02*
X154960000Y-58340000D01*
X151650000Y-58330000D02*
X151650000Y-57580000D01*
X151650000Y-57580000D02*
X150650000Y-57580000D01*
X150650000Y-57580000D02*
X150650000Y-58330000D01*
X150650000Y-58330000D02*
X151650000Y-58330000D01*
X154950000Y-58330000D02*
X154950000Y-57580000D01*
X154950000Y-57580000D02*
X153150000Y-57580000D01*
X153150000Y-57580000D02*
X153150000Y-58330000D01*
X153150000Y-58330000D02*
X154950000Y-58330000D01*
X149150000Y-58330000D02*
X149150000Y-57580000D01*
X149150000Y-57580000D02*
X147350000Y-57580000D01*
X147350000Y-57580000D02*
X147350000Y-58330000D01*
X147350000Y-58330000D02*
X149150000Y-58330000D01*
X154950000Y-56080000D02*
X154200000Y-56080000D01*
X154200000Y-56080000D02*
X154200000Y-53130000D01*
X154200000Y-53130000D02*
X151150000Y-53130000D01*
X147350000Y-56080000D02*
X148100000Y-56080000D01*
X148100000Y-56080000D02*
X148100000Y-53130000D01*
X148100000Y-53130000D02*
X151150000Y-53130000D01*
X154000000Y-58630000D02*
X155250000Y-58630000D01*
X155250000Y-58630000D02*
X155250000Y-57380000D01*
%TO.C,JP1*%
X130870000Y-57210000D02*
X129540000Y-57210000D01*
X130870000Y-55880000D02*
X130870000Y-57210000D01*
X130870000Y-54610000D02*
X128210000Y-54610000D01*
X128210000Y-54610000D02*
X128210000Y-52010000D01*
X130870000Y-54610000D02*
X130870000Y-52010000D01*
X130870000Y-52010000D02*
X128210000Y-52010000D01*
%TO.C,JP2*%
X130870000Y-62170000D02*
X128210000Y-62170000D01*
X130870000Y-64770000D02*
X130870000Y-62170000D01*
X128210000Y-64770000D02*
X128210000Y-62170000D01*
X130870000Y-64770000D02*
X128210000Y-64770000D01*
X130870000Y-66040000D02*
X130870000Y-67370000D01*
X130870000Y-67370000D02*
X129540000Y-67370000D01*
%TO.C,RV1*%
X172680274Y-49409201D02*
G75*
G02*
X177720000Y-45680000I5039726J-1540799D01*
G01*
X181756621Y-54338475D02*
G75*
G02*
X172606000Y-52224000I-4036621J3388475D01*
G01*
X182834391Y-49675119D02*
G75*
G02*
X182894000Y-51956000I-5114391J-1274881D01*
G01*
X177627970Y-45680643D02*
G75*
G02*
X181511000Y-47289000I92030J-5269357D01*
G01*
%TO.C,RV2*%
X177627970Y-58380643D02*
G75*
G02*
X181511000Y-59989000I92030J-5269357D01*
G01*
X182834391Y-62375119D02*
G75*
G02*
X182894000Y-64656000I-5114391J-1274881D01*
G01*
X181756621Y-67038475D02*
G75*
G02*
X172606000Y-64924000I-4036621J3388475D01*
G01*
X172680274Y-62109201D02*
G75*
G02*
X177720000Y-58380000I5039726J-1540799D01*
G01*
%TO.C,J4*%
D13*
X135556666Y-32472380D02*
X135556666Y-33186666D01*
X135509047Y-33329523D01*
X135413809Y-33424761D01*
X135270952Y-33472380D01*
X135175714Y-33472380D01*
X136461428Y-32805714D02*
X136461428Y-33472380D01*
X136223333Y-32424761D02*
X135985238Y-33139047D01*
X136604285Y-33139047D01*
%TO.C,J5*%
X153336666Y-32472380D02*
X153336666Y-33186666D01*
X153289047Y-33329523D01*
X153193809Y-33424761D01*
X153050952Y-33472380D01*
X152955714Y-33472380D01*
X154289047Y-32472380D02*
X153812857Y-32472380D01*
X153765238Y-32948571D01*
X153812857Y-32900952D01*
X153908095Y-32853333D01*
X154146190Y-32853333D01*
X154241428Y-32900952D01*
X154289047Y-32948571D01*
X154336666Y-33043809D01*
X154336666Y-33281904D01*
X154289047Y-33377142D01*
X154241428Y-33424761D01*
X154146190Y-33472380D01*
X153908095Y-33472380D01*
X153812857Y-33424761D01*
X153765238Y-33377142D01*
%TO.C,D1*%
X140572380Y-76938095D02*
X139572380Y-76938095D01*
X139572380Y-76700000D01*
X139620000Y-76557142D01*
X139715238Y-76461904D01*
X139810476Y-76414285D01*
X140000952Y-76366666D01*
X140143809Y-76366666D01*
X140334285Y-76414285D01*
X140429523Y-76461904D01*
X140524761Y-76557142D01*
X140572380Y-76700000D01*
X140572380Y-76938095D01*
X140572380Y-75414285D02*
X140572380Y-75985714D01*
X140572380Y-75700000D02*
X139572380Y-75700000D01*
X139715238Y-75795238D01*
X139810476Y-75890476D01*
X139858095Y-75985714D01*
%TO.C,HFD31*%
X145572380Y-78406666D02*
X144572380Y-78406666D01*
X145048571Y-78406666D02*
X145048571Y-77835238D01*
X145572380Y-77835238D02*
X144572380Y-77835238D01*
X145048571Y-77025714D02*
X145048571Y-77359047D01*
X145572380Y-77359047D02*
X144572380Y-77359047D01*
X144572380Y-76882857D01*
X145572380Y-76501904D02*
X144572380Y-76501904D01*
X144572380Y-76263809D01*
X144620000Y-76120952D01*
X144715238Y-76025714D01*
X144810476Y-75978095D01*
X145000952Y-75930476D01*
X145143809Y-75930476D01*
X145334285Y-75978095D01*
X145429523Y-76025714D01*
X145524761Y-76120952D01*
X145572380Y-76263809D01*
X145572380Y-76501904D01*
X144572380Y-75597142D02*
X144572380Y-74978095D01*
X144953333Y-75311428D01*
X144953333Y-75168571D01*
X145000952Y-75073333D01*
X145048571Y-75025714D01*
X145143809Y-74978095D01*
X145381904Y-74978095D01*
X145477142Y-75025714D01*
X145524761Y-75073333D01*
X145572380Y-75168571D01*
X145572380Y-75454285D01*
X145524761Y-75549523D01*
X145477142Y-75597142D01*
X145572380Y-74025714D02*
X145572380Y-74597142D01*
X145572380Y-74311428D02*
X144572380Y-74311428D01*
X144715238Y-74406666D01*
X144810476Y-74501904D01*
X144858095Y-74597142D01*
%TO.C,J1*%
X158416666Y-45172380D02*
X158416666Y-45886666D01*
X158369047Y-46029523D01*
X158273809Y-46124761D01*
X158130952Y-46172380D01*
X158035714Y-46172380D01*
X159416666Y-46172380D02*
X158845238Y-46172380D01*
X159130952Y-46172380D02*
X159130952Y-45172380D01*
X159035714Y-45315238D01*
X158940476Y-45410476D01*
X158845238Y-45458095D01*
%TO.C,J2*%
X158416666Y-55332380D02*
X158416666Y-56046666D01*
X158369047Y-56189523D01*
X158273809Y-56284761D01*
X158130952Y-56332380D01*
X158035714Y-56332380D01*
X158845238Y-55427619D02*
X158892857Y-55380000D01*
X158988095Y-55332380D01*
X159226190Y-55332380D01*
X159321428Y-55380000D01*
X159369047Y-55427619D01*
X159416666Y-55522857D01*
X159416666Y-55618095D01*
X159369047Y-55760952D01*
X158797619Y-56332380D01*
X159416666Y-56332380D01*
%TO.C,J3*%
X158416666Y-65492380D02*
X158416666Y-66206666D01*
X158369047Y-66349523D01*
X158273809Y-66444761D01*
X158130952Y-66492380D01*
X158035714Y-66492380D01*
X158797619Y-65492380D02*
X159416666Y-65492380D01*
X159083333Y-65873333D01*
X159226190Y-65873333D01*
X159321428Y-65920952D01*
X159369047Y-65968571D01*
X159416666Y-66063809D01*
X159416666Y-66301904D01*
X159369047Y-66397142D01*
X159321428Y-66444761D01*
X159226190Y-66492380D01*
X158940476Y-66492380D01*
X158845238Y-66444761D01*
X158797619Y-66397142D01*
%TO.C,J6*%
X133016666Y-45172380D02*
X133016666Y-45886666D01*
X132969047Y-46029523D01*
X132873809Y-46124761D01*
X132730952Y-46172380D01*
X132635714Y-46172380D01*
X133921428Y-45172380D02*
X133730952Y-45172380D01*
X133635714Y-45220000D01*
X133588095Y-45267619D01*
X133492857Y-45410476D01*
X133445238Y-45600952D01*
X133445238Y-45981904D01*
X133492857Y-46077142D01*
X133540476Y-46124761D01*
X133635714Y-46172380D01*
X133826190Y-46172380D01*
X133921428Y-46124761D01*
X133969047Y-46077142D01*
X134016666Y-45981904D01*
X134016666Y-45743809D01*
X133969047Y-45648571D01*
X133921428Y-45600952D01*
X133826190Y-45553333D01*
X133635714Y-45553333D01*
X133540476Y-45600952D01*
X133492857Y-45648571D01*
X133445238Y-45743809D01*
%TO.C,J7*%
X133016666Y-55332380D02*
X133016666Y-56046666D01*
X132969047Y-56189523D01*
X132873809Y-56284761D01*
X132730952Y-56332380D01*
X132635714Y-56332380D01*
X133397619Y-55332380D02*
X134064285Y-55332380D01*
X133635714Y-56332380D01*
%TO.C,J8*%
X133016666Y-65492380D02*
X133016666Y-66206666D01*
X132969047Y-66349523D01*
X132873809Y-66444761D01*
X132730952Y-66492380D01*
X132635714Y-66492380D01*
X133635714Y-65920952D02*
X133540476Y-65873333D01*
X133492857Y-65825714D01*
X133445238Y-65730476D01*
X133445238Y-65682857D01*
X133492857Y-65587619D01*
X133540476Y-65540000D01*
X133635714Y-65492380D01*
X133826190Y-65492380D01*
X133921428Y-65540000D01*
X133969047Y-65587619D01*
X134016666Y-65682857D01*
X134016666Y-65730476D01*
X133969047Y-65825714D01*
X133921428Y-65873333D01*
X133826190Y-65920952D01*
X133635714Y-65920952D01*
X133540476Y-65968571D01*
X133492857Y-66016190D01*
X133445238Y-66111428D01*
X133445238Y-66301904D01*
X133492857Y-66397142D01*
X133540476Y-66444761D01*
X133635714Y-66492380D01*
X133826190Y-66492380D01*
X133921428Y-66444761D01*
X133969047Y-66397142D01*
X134016666Y-66301904D01*
X134016666Y-66111428D01*
X133969047Y-66016190D01*
X133921428Y-65968571D01*
X133826190Y-65920952D01*
%TO.C,J9*%
X145716666Y-45172380D02*
X145716666Y-45886666D01*
X145669047Y-46029523D01*
X145573809Y-46124761D01*
X145430952Y-46172380D01*
X145335714Y-46172380D01*
X146240476Y-46172380D02*
X146430952Y-46172380D01*
X146526190Y-46124761D01*
X146573809Y-46077142D01*
X146669047Y-45934285D01*
X146716666Y-45743809D01*
X146716666Y-45362857D01*
X146669047Y-45267619D01*
X146621428Y-45220000D01*
X146526190Y-45172380D01*
X146335714Y-45172380D01*
X146240476Y-45220000D01*
X146192857Y-45267619D01*
X146145238Y-45362857D01*
X146145238Y-45600952D01*
X146192857Y-45696190D01*
X146240476Y-45743809D01*
X146335714Y-45791428D01*
X146526190Y-45791428D01*
X146621428Y-45743809D01*
X146669047Y-45696190D01*
X146716666Y-45600952D01*
%TO.C,J10*%
X145240476Y-65492380D02*
X145240476Y-66206666D01*
X145192857Y-66349523D01*
X145097619Y-66444761D01*
X144954761Y-66492380D01*
X144859523Y-66492380D01*
X146240476Y-66492380D02*
X145669047Y-66492380D01*
X145954761Y-66492380D02*
X145954761Y-65492380D01*
X145859523Y-65635238D01*
X145764285Y-65730476D01*
X145669047Y-65778095D01*
X146859523Y-65492380D02*
X146954761Y-65492380D01*
X147050000Y-65540000D01*
X147097619Y-65587619D01*
X147145238Y-65682857D01*
X147192857Y-65873333D01*
X147192857Y-66111428D01*
X147145238Y-66301904D01*
X147097619Y-66397142D01*
X147050000Y-66444761D01*
X146954761Y-66492380D01*
X146859523Y-66492380D01*
X146764285Y-66444761D01*
X146716666Y-66397142D01*
X146669047Y-66301904D01*
X146621428Y-66111428D01*
X146621428Y-65873333D01*
X146669047Y-65682857D01*
X146716666Y-65587619D01*
X146764285Y-65540000D01*
X146859523Y-65492380D01*
%TO.C,J11*%
X145240476Y-55332380D02*
X145240476Y-56046666D01*
X145192857Y-56189523D01*
X145097619Y-56284761D01*
X144954761Y-56332380D01*
X144859523Y-56332380D01*
X146240476Y-56332380D02*
X145669047Y-56332380D01*
X145954761Y-56332380D02*
X145954761Y-55332380D01*
X145859523Y-55475238D01*
X145764285Y-55570476D01*
X145669047Y-55618095D01*
X147192857Y-56332380D02*
X146621428Y-56332380D01*
X146907142Y-56332380D02*
X146907142Y-55332380D01*
X146811904Y-55475238D01*
X146716666Y-55570476D01*
X146621428Y-55618095D01*
%TO.C,JP1*%
X128706666Y-57662380D02*
X128706666Y-58376666D01*
X128659047Y-58519523D01*
X128563809Y-58614761D01*
X128420952Y-58662380D01*
X128325714Y-58662380D01*
X129182857Y-58662380D02*
X129182857Y-57662380D01*
X129563809Y-57662380D01*
X129659047Y-57710000D01*
X129706666Y-57757619D01*
X129754285Y-57852857D01*
X129754285Y-57995714D01*
X129706666Y-58090952D01*
X129659047Y-58138571D01*
X129563809Y-58186190D01*
X129182857Y-58186190D01*
X130706666Y-58662380D02*
X130135238Y-58662380D01*
X130420952Y-58662380D02*
X130420952Y-57662380D01*
X130325714Y-57805238D01*
X130230476Y-57900476D01*
X130135238Y-57948095D01*
%TO.C,JP2*%
X128706666Y-67822380D02*
X128706666Y-68536666D01*
X128659047Y-68679523D01*
X128563809Y-68774761D01*
X128420952Y-68822380D01*
X128325714Y-68822380D01*
X129182857Y-68822380D02*
X129182857Y-67822380D01*
X129563809Y-67822380D01*
X129659047Y-67870000D01*
X129706666Y-67917619D01*
X129754285Y-68012857D01*
X129754285Y-68155714D01*
X129706666Y-68250952D01*
X129659047Y-68298571D01*
X129563809Y-68346190D01*
X129182857Y-68346190D01*
X130135238Y-67917619D02*
X130182857Y-67870000D01*
X130278095Y-67822380D01*
X130516190Y-67822380D01*
X130611428Y-67870000D01*
X130659047Y-67917619D01*
X130706666Y-68012857D01*
X130706666Y-68108095D01*
X130659047Y-68250952D01*
X130087619Y-68822380D01*
X130706666Y-68822380D01*
%TO.C,RV1*%
X177124761Y-57802380D02*
X176791428Y-57326190D01*
X176553333Y-57802380D02*
X176553333Y-56802380D01*
X176934285Y-56802380D01*
X177029523Y-56850000D01*
X177077142Y-56897619D01*
X177124761Y-56992857D01*
X177124761Y-57135714D01*
X177077142Y-57230952D01*
X177029523Y-57278571D01*
X176934285Y-57326190D01*
X176553333Y-57326190D01*
X177410476Y-56802380D02*
X177743809Y-57802380D01*
X178077142Y-56802380D01*
X178934285Y-57802380D02*
X178362857Y-57802380D01*
X178648571Y-57802380D02*
X178648571Y-56802380D01*
X178553333Y-56945238D01*
X178458095Y-57040476D01*
X178362857Y-57088095D01*
%TO.C,RV2*%
X177124761Y-70502380D02*
X176791428Y-70026190D01*
X176553333Y-70502380D02*
X176553333Y-69502380D01*
X176934285Y-69502380D01*
X177029523Y-69550000D01*
X177077142Y-69597619D01*
X177124761Y-69692857D01*
X177124761Y-69835714D01*
X177077142Y-69930952D01*
X177029523Y-69978571D01*
X176934285Y-70026190D01*
X176553333Y-70026190D01*
X177410476Y-69502380D02*
X177743809Y-70502380D01*
X178077142Y-69502380D01*
X178362857Y-69597619D02*
X178410476Y-69550000D01*
X178505714Y-69502380D01*
X178743809Y-69502380D01*
X178839047Y-69550000D01*
X178886666Y-69597619D01*
X178934285Y-69692857D01*
X178934285Y-69788095D01*
X178886666Y-69930952D01*
X178315238Y-70502380D01*
X178934285Y-70502380D01*
%TD*%
%LPC*%
D14*
%TO.C,J4*%
X149860000Y-33020000D03*
D15*
X144860000Y-33020000D03*
X139860000Y-33020000D03*
%TD*%
D16*
%TO.C,REF\u002A\u002A*%
X180340000Y-76200000D03*
%TD*%
%TO.C,REF\u002A\u002A*%
X129540000Y-76200000D03*
%TD*%
%TO.C,REF\u002A\u002A*%
X129540000Y-35560000D03*
%TD*%
%TO.C,REF\u002A\u002A*%
X180340000Y-35560000D03*
%TD*%
%TO.C,J5*%
G36*
G01*
X156630000Y-33745000D02*
X156630000Y-32295000D01*
G75*
G02*
X156880000Y-32045000I250000J0D01*
G01*
X158080000Y-32045000D01*
G75*
G02*
X158330000Y-32295000I0J-250000D01*
G01*
X158330000Y-33745000D01*
G75*
G02*
X158080000Y-33995000I-250000J0D01*
G01*
X156880000Y-33995000D01*
G75*
G02*
X156630000Y-33745000I0J250000D01*
G01*
G37*
D17*
X159980000Y-33020000D03*
X162480000Y-33020000D03*
X164980000Y-33020000D03*
X167480000Y-33020000D03*
X169980000Y-33020000D03*
%TD*%
D18*
%TO.C,D1*%
X142240000Y-80010000D03*
D19*
X142240000Y-72390000D03*
%TD*%
D20*
%TO.C,HFD31*%
X154940000Y-73660000D03*
X154940000Y-78740000D03*
X147320000Y-73660000D03*
X152400000Y-73660000D03*
D21*
X147320000Y-78740000D03*
D20*
X152400000Y-78740000D03*
X157480000Y-73660000D03*
X157480000Y-78740000D03*
%TD*%
D22*
%TO.C,J1*%
X162560000Y-45720000D03*
G36*
G01*
X165910000Y-44970000D02*
X165910000Y-46470000D01*
G75*
G02*
X165660000Y-46720000I-250000J0D01*
G01*
X164460000Y-46720000D01*
G75*
G02*
X164210000Y-46470000I0J250000D01*
G01*
X164210000Y-44970000D01*
G75*
G02*
X164460000Y-44720000I250000J0D01*
G01*
X165660000Y-44720000D01*
G75*
G02*
X165910000Y-44970000I0J-250000D01*
G01*
G37*
%TD*%
%TO.C,J2*%
G36*
G01*
X165910000Y-55130000D02*
X165910000Y-56630000D01*
G75*
G02*
X165660000Y-56880000I-250000J0D01*
G01*
X164460000Y-56880000D01*
G75*
G02*
X164210000Y-56630000I0J250000D01*
G01*
X164210000Y-55130000D01*
G75*
G02*
X164460000Y-54880000I250000J0D01*
G01*
X165660000Y-54880000D01*
G75*
G02*
X165910000Y-55130000I0J-250000D01*
G01*
G37*
X162560000Y-55880000D03*
%TD*%
%TO.C,J3*%
X162600000Y-66040000D03*
G36*
G01*
X165950000Y-65290000D02*
X165950000Y-66790000D01*
G75*
G02*
X165700000Y-67040000I-250000J0D01*
G01*
X164500000Y-67040000D01*
G75*
G02*
X164250000Y-66790000I0J250000D01*
G01*
X164250000Y-65290000D01*
G75*
G02*
X164500000Y-65040000I250000J0D01*
G01*
X165700000Y-65040000D01*
G75*
G02*
X165950000Y-65290000I0J-250000D01*
G01*
G37*
%TD*%
%TO.C,J6*%
G36*
G01*
X140550000Y-44970000D02*
X140550000Y-46470000D01*
G75*
G02*
X140300000Y-46720000I-250000J0D01*
G01*
X139100000Y-46720000D01*
G75*
G02*
X138850000Y-46470000I0J250000D01*
G01*
X138850000Y-44970000D01*
G75*
G02*
X139100000Y-44720000I250000J0D01*
G01*
X140300000Y-44720000D01*
G75*
G02*
X140550000Y-44970000I0J-250000D01*
G01*
G37*
X137200000Y-45720000D03*
%TD*%
%TO.C,J7*%
G36*
G01*
X140550000Y-55130000D02*
X140550000Y-56630000D01*
G75*
G02*
X140300000Y-56880000I-250000J0D01*
G01*
X139100000Y-56880000D01*
G75*
G02*
X138850000Y-56630000I0J250000D01*
G01*
X138850000Y-55130000D01*
G75*
G02*
X139100000Y-54880000I250000J0D01*
G01*
X140300000Y-54880000D01*
G75*
G02*
X140550000Y-55130000I0J-250000D01*
G01*
G37*
X137200000Y-55880000D03*
%TD*%
%TO.C,J8*%
G36*
G01*
X140550000Y-65290000D02*
X140550000Y-66790000D01*
G75*
G02*
X140300000Y-67040000I-250000J0D01*
G01*
X139100000Y-67040000D01*
G75*
G02*
X138850000Y-66790000I0J250000D01*
G01*
X138850000Y-65290000D01*
G75*
G02*
X139100000Y-65040000I250000J0D01*
G01*
X140300000Y-65040000D01*
G75*
G02*
X140550000Y-65290000I0J-250000D01*
G01*
G37*
X137200000Y-66040000D03*
%TD*%
%TO.C,J9*%
G36*
G01*
X153250000Y-44970000D02*
X153250000Y-46470000D01*
G75*
G02*
X153000000Y-46720000I-250000J0D01*
G01*
X151800000Y-46720000D01*
G75*
G02*
X151550000Y-46470000I0J250000D01*
G01*
X151550000Y-44970000D01*
G75*
G02*
X151800000Y-44720000I250000J0D01*
G01*
X153000000Y-44720000D01*
G75*
G02*
X153250000Y-44970000I0J-250000D01*
G01*
G37*
X149900000Y-45720000D03*
%TD*%
%TO.C,J10*%
X149900000Y-66040000D03*
G36*
G01*
X153250000Y-65290000D02*
X153250000Y-66790000D01*
G75*
G02*
X153000000Y-67040000I-250000J0D01*
G01*
X151800000Y-67040000D01*
G75*
G02*
X151550000Y-66790000I0J250000D01*
G01*
X151550000Y-65290000D01*
G75*
G02*
X151800000Y-65040000I250000J0D01*
G01*
X153000000Y-65040000D01*
G75*
G02*
X153250000Y-65290000I0J-250000D01*
G01*
G37*
%TD*%
%TO.C,J11*%
X149900000Y-55880000D03*
G36*
G01*
X153250000Y-55130000D02*
X153250000Y-56630000D01*
G75*
G02*
X153000000Y-56880000I-250000J0D01*
G01*
X151800000Y-56880000D01*
G75*
G02*
X151550000Y-56630000I0J250000D01*
G01*
X151550000Y-55130000D01*
G75*
G02*
X151800000Y-54880000I250000J0D01*
G01*
X153000000Y-54880000D01*
G75*
G02*
X153250000Y-55130000I0J-250000D01*
G01*
G37*
%TD*%
D23*
%TO.C,JP1*%
X129540000Y-55880000D03*
D24*
X129540000Y-53340000D03*
%TD*%
%TO.C,JP2*%
X129540000Y-63500000D03*
D23*
X129540000Y-66040000D03*
%TD*%
D25*
%TO.C,RV1*%
X182720000Y-53300000D03*
X172720000Y-50800000D03*
X182720000Y-48300000D03*
%TD*%
%TO.C,RV2*%
X182720000Y-61000000D03*
X172720000Y-63500000D03*
X182720000Y-66000000D03*
%TD*%
M02*
