M48
; DRILL file {KiCad (5.1.9)-1} date 09/13/21 23:18:13
; FORMAT={-:-/ absolute / metric / decimal}
; #@! TF.CreationDate,2021-09-13T23:18:13+02:00
; #@! TF.GenerationSoftware,Kicad,Pcbnew,(5.1.9)-1
; #@! TF.FileFunction,Plated,1,2,PTH
FMAT,2
METRIC
T1C0.400
T2C0.800
T3C0.950
T4C1.000
T5C1.300
%
G90
G05
T1
X168.91Y-71.12
T2
X142.24Y-72.39
X142.24Y-80.01
T3
X157.48Y-33.02
X159.98Y-33.02
X162.48Y-33.02
X164.98Y-33.02
X167.48Y-33.02
X169.98Y-33.02
T4
X129.54Y-53.34
X129.54Y-55.88
X129.54Y-63.5
X129.54Y-66.04
X137.2Y-45.72
X137.2Y-55.88
X137.2Y-66.04
X139.7Y-45.72
X139.7Y-55.88
X139.7Y-66.04
X147.32Y-73.66
X147.32Y-78.74
X149.9Y-45.72
X149.9Y-55.88
X149.9Y-66.04
X152.4Y-45.72
X152.4Y-55.88
X152.4Y-66.04
X152.4Y-73.66
X152.4Y-78.74
X154.94Y-73.66
X154.94Y-78.74
X157.48Y-73.66
X157.48Y-78.74
X162.56Y-45.72
X162.56Y-55.88
X162.6Y-66.04
X165.06Y-45.72
X165.06Y-55.88
X165.1Y-66.04
T5
X139.86Y-33.02
X144.86Y-33.02
X149.86Y-33.02
X172.72Y-50.8
X172.72Y-63.5
X182.72Y-48.3
X182.72Y-53.3
X182.72Y-61.0
X182.72Y-66.0
T0
M30
